# Blender v2.79 (sub 0) OBJ File: ''
# www.blender.org
mtllib g02.mtl
o Curve_CUCurve.001
v -0.003669 0.015000 0.261288
v -0.261343 0.015000 -0.261288
v -0.196431 0.015000 -0.261288
v 0.000000 0.015000 0.137134
v 0.196431 0.015000 -0.261288
v 0.261343 0.015000 -0.261288
v 0.003669 0.015000 0.261288
v -0.003669 -0.015000 0.261288
v -0.261343 -0.015000 -0.261288
v -0.196431 -0.015000 -0.261288
v 0.000000 -0.015000 0.137134
v 0.196431 -0.015000 -0.261288
v 0.261343 -0.015000 -0.261288
v 0.003669 -0.015000 0.261288
v -0.003669 -0.015000 0.261288
v -0.006778 -0.010000 0.266288
v -0.261343 -0.015000 -0.261288
v -0.269383 -0.010000 -0.266288
v -0.196431 -0.015000 -0.261288
v -0.193321 -0.010000 -0.266288
v 0.000000 -0.015000 0.137134
v 0.000000 -0.010000 0.125827
v 0.196431 -0.015000 -0.261288
v 0.193321 -0.010000 -0.266288
v 0.261343 -0.015000 -0.261288
v 0.269383 -0.010000 -0.266288
v 0.003669 -0.015000 0.261288
v 0.006778 -0.010000 0.266288
v -0.006778 -0.010000 0.266288
v -0.006778 0.010000 0.266288
v -0.269383 -0.010000 -0.266288
v -0.269383 0.010000 -0.266288
v -0.193321 -0.010000 -0.266288
v -0.193321 0.010000 -0.266288
v 0.000000 -0.010000 0.125827
v 0.000000 0.010000 0.125827
v 0.193321 -0.010000 -0.266288
v 0.193321 0.010000 -0.266288
v 0.269383 -0.010000 -0.266288
v 0.269383 0.010000 -0.266288
v 0.006778 -0.010000 0.266288
v 0.006778 0.010000 0.266288
v -0.006778 0.010000 0.266288
v -0.003669 0.015000 0.261288
v -0.269383 0.010000 -0.266288
v -0.261343 0.015000 -0.261288
v -0.193321 0.010000 -0.266288
v -0.196431 0.015000 -0.261288
v 0.000000 0.010000 0.125827
v 0.000000 0.015000 0.137134
v 0.193321 0.010000 -0.266288
v 0.196431 0.015000 -0.261288
v 0.269383 0.010000 -0.266288
v 0.261343 0.015000 -0.261288
v 0.006778 0.010000 0.266288
v 0.003669 0.015000 0.261288
vn 0.0000 1.0000 0.0000
vn 0.0000 -1.0000 0.0000
vn -0.3418 -0.7622 0.5497
vn -0.3965 -0.8842 -0.2466
vn 0.3418 -0.7622 -0.5496
vn 0.0000 -0.9145 -0.4044
vn -0.3418 -0.7622 -0.5496
vn 0.3965 -0.8842 -0.2466
vn 0.3418 -0.7622 0.5497
vn -0.5281 0.0000 0.8492
vn -0.8492 0.0000 -0.5281
vn 0.5281 0.0000 -0.8491
vn 0.0000 0.0000 -1.0000
vn -0.5281 0.0000 -0.8491
vn 0.8492 0.0000 -0.5281
vn 0.5281 0.0000 0.8492
vn -0.3418 0.7622 0.5497
vn -0.3965 0.8842 -0.2466
vn 0.3418 0.7622 -0.5496
vn 0.0000 0.9145 -0.4044
vn -0.3418 0.7622 -0.5496
vn 0.3965 0.8842 -0.2466
vn 0.3418 0.7622 0.5497
usemtl (null)
s off
f 1//1 3//1 2//1
f 1//1 4//1 3//1
f 4//1 6//1 5//1
f 4//1 7//1 6//1
f 1//1 7//1 4//1
f 10//2 8//2 9//2
f 11//2 8//2 10//2
f 13//2 11//2 12//2
f 14//2 11//2 13//2
f 14//2 8//2 11//2
s 1
f 16//3 18//4 17//4 15//3
f 18//4 20//5 19//5 17//4
f 20//5 22//6 21//6 19//5
f 22//6 24//7 23//7 21//6
f 24//7 26//8 25//8 23//7
f 26//8 28//9 27//9 25//8
f 28//9 16//3 15//3 27//9
f 30//10 32//11 31//11 29//10
f 32//11 34//12 33//12 31//11
f 34//12 36//13 35//13 33//12
f 36//13 38//14 37//14 35//13
f 38//14 40//15 39//15 37//14
f 40//15 42//16 41//16 39//15
f 42//16 30//10 29//10 41//16
f 44//17 46//18 45//18 43//17
f 46//18 48//19 47//19 45//18
f 48//19 50//20 49//20 47//19
f 50//20 52//21 51//21 49//20
f 52//21 54//22 53//22 51//21
f 54//22 56//23 55//23 53//22
f 56//23 44//17 43//17 55//23
